<svg width="28" height="28" viewBox="0 0 28 28" fill="none" xmlns="http://www.w3.org/2000/svg">
<path d="M14 2C7.37281 2 2 7.37281 2 14C2 20.6272 7.37281 26 14 26C20.6272 26 26 20.6272 26 14C26 7.37281 20.6272 2 14 2ZM14 24.8C8.04481 24.8 3.2 19.9552 3.2 14C3.2 8.04481 8.04481 3.2 14 3.2C19.9552 3.2 24.8 8.04481 24.8 14C24.8 19.9552 19.9552 24.8 14 24.8Z" fill="#00B1AA" stroke="#00B1AA" stroke-width="0.5"/>
<path d="M14 4.40002C12.3432 4.40002 11 5.74323 11 7.40003C11 9.05682 12.3432 10.4 14 10.4C15.6568 10.4 17 9.05682 17 7.40003C17 5.74323 15.6568 4.40002 14 4.40002ZM14 9.20003C13.0076 9.20003 12.2 8.39242 12.2 7.40003C12.2 6.40763 13.0076 5.60003 14 5.60003C14.9924 5.60003 15.8 6.40763 15.8 7.40003C15.8 8.39242 14.9924 9.20003 14 9.20003Z" fill="#00B1AA" stroke="#00B1AA" stroke-width="0.5"/>
<path d="M15.2001 11.6H12.8001C12.1373 11.6 11.6001 12.1372 11.6001 12.8V22.4C11.6001 23.0628 12.1373 23.6 12.8001 23.6H15.2001C15.8629 23.6 16.4001 23.0628 16.4001 22.4V12.8C16.4001 12.1372 15.8629 11.6 15.2001 11.6ZM15.2001 22.4H12.8001V12.8H15.2001V22.4Z" fill="#00B1AA" stroke="#00B1AA" stroke-width="0.5"/>
</svg>
