<svg width="24" height="24" viewBox="0 0 24 24" fill="none" xmlns="http://www.w3.org/2000/svg">
<g clip-path="url(#clip0_234_1936)">
<path d="M13.8877 7.73935C14.6715 7.15942 15.1809 6.22868 15.1809 5.18101C15.1809 3.42697 13.7539 2 11.9999 2C10.2458 2 8.81887 3.42697 8.81887 5.18101C8.81887 6.22868 9.32823 7.15942 10.112 7.73935C8.6907 8.43895 7.70996 9.90202 7.70996 11.5904V15.0381C7.70996 15.7566 8.17441 16.3686 8.81892 16.5897V21.4213C8.81892 22.1348 9.39941 22.7153 10.1129 22.7153H13.8869C14.6005 22.7153 15.1809 22.1348 15.1809 21.4213V16.5897C15.8255 16.3686 16.2899 15.7566 16.2899 15.0381V11.5904C16.2899 9.90207 15.3091 8.43895 13.8877 7.73935ZM11.9999 3.06153C13.1686 3.06153 14.1194 4.01232 14.1194 5.18101C14.1194 6.3497 13.1686 7.30049 11.9999 7.30049C10.8312 7.30049 9.88045 6.3497 9.88045 5.18101C9.88045 4.01232 10.8312 3.06153 11.9999 3.06153ZM15.2283 15.0381C15.2283 15.359 14.9656 15.6197 14.644 15.6163C14.3518 15.6132 14.1194 15.8637 14.1194 16.1559V21.4214C14.1194 21.5498 14.0153 21.6539 13.8869 21.6539H12.7881C12.646 21.6539 12.5307 21.5386 12.5307 21.3964V16.9099C12.5307 16.6272 12.3174 16.3804 12.0353 16.3621C11.7262 16.3421 11.4692 16.5869 11.4692 16.8917V21.3964C11.4692 21.5386 11.3539 21.6539 11.2117 21.6539H10.1129C9.98454 21.6539 9.88045 21.5498 9.88045 21.4214V16.156C9.88045 15.8638 9.64809 15.6133 9.35589 15.6163C9.03425 15.6197 8.77149 15.359 8.77149 15.0381V11.6394C8.77149 9.86777 10.1783 8.38939 11.9498 8.36235C13.7528 8.33486 15.2283 9.79352 15.2283 11.5903V15.0381Z" fill="#EFB318" stroke="#EFB318" stroke-width="0.5"/>
<path d="M4.75638 9.10801C5.23357 8.6725 5.53348 8.04586 5.53348 7.35045C5.53348 6.03817 4.46586 4.97061 3.15358 4.97061C1.84131 4.97061 0.773688 6.03817 0.773688 7.35045C0.773688 8.04586 1.0736 8.6725 1.55078 9.10801C0.623398 9.65771 0 10.6683 0 11.8223V14.2279C0 14.7583 0.318236 15.2158 0.773744 15.4195V18.6816C0.773744 19.2679 1.25076 19.7449 1.83706 19.7449H4.47022C5.05652 19.7449 5.53348 19.2679 5.53348 18.6816V15.4195C5.98899 15.2158 6.30717 14.7584 6.30717 14.228V11.8224C6.30717 10.6683 5.68377 9.65771 4.75638 9.10801ZM1.83527 7.35039C1.83527 6.62347 2.42666 6.03208 3.15364 6.03208C3.88062 6.03208 4.472 6.62347 4.472 7.35039C4.472 8.07732 3.88062 8.66876 3.15364 8.66876C2.42666 8.66876 1.83527 8.07732 1.83527 7.35039ZM5.24564 14.2279C5.24564 14.3618 5.13663 14.4709 5.00271 14.4709C4.70956 14.4709 4.47195 14.7085 4.47195 15.0016L4.47022 18.6833L3.6844 18.6828V15.5211C3.6844 15.2279 3.44679 14.9903 3.15364 14.9903C2.86049 14.9903 2.62287 15.2279 2.62287 15.5211V18.682L1.83527 18.6815V15.0016C1.83527 14.7084 1.59766 14.4708 1.30451 14.4708C1.17053 14.4708 1.06153 14.3618 1.06153 14.2279V11.8223C1.06153 10.6687 2.00003 9.73023 3.15358 9.73023C4.30713 9.73023 5.24564 10.6687 5.24564 11.8223V14.2279Z" fill="#EFB318" stroke="#EFB318" stroke-width="0.5"/>
<path d="M22.4492 9.10801C22.9264 8.6725 23.2263 8.04586 23.2263 7.35045C23.2263 6.03817 22.1587 4.97061 20.8464 4.97061C19.5342 4.97061 18.4666 6.03817 18.4666 7.35045C18.4666 8.04586 18.7665 8.6725 19.2436 9.10801C18.3163 9.65771 17.6929 10.6683 17.6929 11.8223V14.2279C17.6929 14.7583 18.0111 15.2158 18.4666 15.4195V18.6816C18.4666 19.2679 18.9436 19.7449 19.5299 19.7449H22.1631C22.7494 19.7449 23.2263 19.2679 23.2263 18.6816V15.4195C23.6818 15.2158 24.0001 14.7584 24.0001 14.2279V11.8223C24 10.6683 23.3766 9.65771 22.4492 9.10801ZM19.5281 7.35039C19.5281 6.62347 20.1195 6.03208 20.8464 6.03208C21.5734 6.03208 22.1648 6.62347 22.1648 7.35039C22.1648 8.07732 21.5734 8.66876 20.8464 8.66876C20.1195 8.66876 19.5281 8.07732 19.5281 7.35039ZM22.9385 14.2279C22.9385 14.3618 22.8295 14.4709 22.6955 14.4709C22.4024 14.4709 22.1647 14.7085 22.1647 15.0016L22.163 18.6833L21.3772 18.6828V15.5211C21.3772 15.2279 21.1396 14.9903 20.8464 14.9903C20.5533 14.9903 20.3157 15.2279 20.3157 15.5211V18.682L19.5281 18.6815V15.0016C19.5281 14.7084 19.2905 14.4708 18.9973 14.4708C18.8633 14.4708 18.7543 14.3618 18.7543 14.2279V11.8223C18.7543 10.6687 19.6928 9.73023 20.8464 9.73023C21.9999 9.73023 22.9384 10.6687 22.9384 11.8223V14.2279H22.9385Z" fill="#EFB318" stroke="#EFB318" stroke-width="0.5"/>
</g>
<defs>
<clipPath id="clip0_234_1936">
<rect width="24" height="24" fill="white"/>
</clipPath>
</defs>
</svg>
